<svg xmlns="http://www.w3.org/2000/svg" viewBox="0 0 64 64">
  <defs><linearGradient id="g" x1="0" x2="1" y1="0" y2="1">
    <stop offset="0" stop-color="#4f46e5"/><stop offset="1" stop-color="#7c3aed"/>
  </linearGradient></defs>
  <rect x="2" y="2" width="60" height="60" rx="14" fill="url(#g)"/>
  <path d="M18 42c4 2 8 3 14 3c8 0 14-4 14-13c0-8-6-13-14-13c-4 0-8 1-12 3l-2-6c5-3 10-4 16-4c12 0 22 7 22 20s-10 20-22 20c-7 0-13-2-18-5l2-5z" fill="white" opacity=".92"/>
  <circle cx="22" cy="32" r="4" fill="white"/></svg>